# xmcd
#
# Track frame offsets:
#  150
#  13600
#  30475
#
# Disc length: 741 seconds
#
# Revision: 0
# Processed by: cddbd v1.5PL3 Copyright (c) Steve Scherf et al.
# Submitted via: AltoMP3_Maker 3.0
#
DISCID=1602e303
DTITLE=Thirty 2 Life - E.P
DYEAR=1900
DGENRE=
TTITLE0=Leaving You Behind
TTITLE1=Regret
TTITLE2=At Any Cost
EXTD=
EXTT0=
EXTT1=
EXTT2=
PLAYORDER=
